###

Smallville S10E13 PROPER HDTV XviD-2HD

###

Plot:

208: 10x13 -- Beacon (Feb/11/2011)
Clark is surprised to see Martha on the news speaking at a pro-vigilante rally. However, surprise quickly turns to horror when he and Lois watch as Martha gets shot on national television. Meanwhile, Lionel reveals himself to the world and reclaims LuthorCorp from Tess and Oliver. Lois and Chloe decide to cheer Clark up by showing him videos from thousands of vigilante supporters professing their support for the Blur. 

###

[code]
Format                           : AVI
Format/Info                      : Audio Video Interleave
File size                        : 350 MiB
Duration                         : 41mn 43s
Overall bit rate                 : 1 173 Kbps
Writing application              : MEncoder SVN-r32669-4.3.2
Writing library                  : MPlayer

Video
ID                               : 0
Format                           : MPEG-4 Visual
Format profile                   : Advanced Simple@L5
Format settings, BVOP            : 1
Format settings, QPel            : No
Format settings, GMC             : No warppoints
Format settings, Matrix          : Default (H.263)
Codec ID                         : XVID
Codec ID/Hint                    : XviD
Duration                         : 41mn 43s
Bit rate                         : 1 032 Kbps
Width                            : 624 pixels
Height                           : 352 pixels
Display aspect ratio             : 16:9
Frame rate                       : 23.976 fps
Color space                      : YUV
Chroma subsampling               : 4:2:0
Bit depth                        : 8 bits
Scan type                        : Progressive
Compression mode                 : Lossy
Bits/(Pixel*Frame)               : 0.196
Stream size                      : 308 MiB (88%)
Writing library                  : XviD 1.2.1 (UTC 2008-12-04)

Audio
ID                               : 1
Format                           : MPEG Audio
Format version                   : Version 1
Format profile                   : Layer 3
Mode                             : Joint stereo
Mode extension                   : MS Stereo
Codec ID                         : 55
Codec ID/Hint                    : MP3
Duration                         : 41mn 43s
Bit rate mode                    : Variable
Bit rate                         : 128 Kbps
Channel(s)                       : 2 channels
Sampling rate                    : 48.0 KHz
Compression mode                 : Lossy
Stream size                      : 38.5 MiB (11%)
Alignment                        : Aligned on interleaves
Interleave, duration             : 24 ms (0.58 video frame)
Interleave, preload duration     : 475 ms
[/code]

